<svg width="1920" height="631" viewBox="0 0 1920 631" fill="none" xmlns="http://www.w3.org/2000/svg">
<path d="M1041.6 330L1040 328.4V190.8L1041.6 189.2H1116.8L1118.4 190.8V203.6L1116.8 205.2H1056.2L1054.6 206.8V245.2L1056.2 246.8H1104L1105.6 248.4V259.6L1104 261.2H1056.2L1054.6 262.8V328.4L1053 330H1041.6ZM1177.54 333.2C1164.74 333.2 1155.41 329.933 1149.54 323.4C1143.68 316.733 1140.74 308.2 1140.74 297.8V221.4C1140.74 211 1143.68 202.533 1149.54 196C1155.41 189.333 1164.74 186 1177.54 186C1190.34 186 1199.68 189.333 1205.54 196C1211.41 202.533 1214.34 211 1214.34 221.4V297.8C1214.34 308.2 1211.41 316.733 1205.54 323.4C1199.68 329.933 1190.34 333.2 1177.54 333.2ZM1177.54 317.2C1185.54 317.2 1191.21 315.133 1194.54 311C1198.01 306.733 1199.74 300.2 1199.74 291.4V227.8C1199.74 219 1198.01 212.533 1194.54 208.4C1191.21 204.133 1185.54 202 1177.54 202C1169.54 202 1163.81 204.133 1160.34 208.4C1157.01 212.533 1155.34 219 1155.34 227.8V291.4C1155.34 300.2 1157.01 306.733 1160.34 311C1163.81 315.133 1169.54 317.2 1177.54 317.2ZM1246.29 330L1244.69 328.4V190.8L1246.29 189.2H1268.69L1270.29 190.8L1299.09 314H1300.69V190.8L1302.29 189.2H1313.49L1315.09 190.8V328.4L1313.49 330H1291.09L1289.49 328.4L1260.69 205.2H1259.09V328.4L1257.49 330H1246.29ZM1376.43 330L1374.83 328.4V271.8L1339.03 192.4V190.8L1340.63 189.2H1352.63L1354.23 190.8L1380.63 249.2H1383.83L1410.23 190.8L1411.83 189.2H1423.83L1425.43 190.8V192.4L1389.63 271.8V328.4L1388.03 330H1376.43ZM1442.98 330L1441.38 328.4V326.8L1475.98 259.6V258L1441.38 192.4V190.8L1442.98 189.2H1455.18L1456.78 190.8L1482.98 243H1486.17L1512.38 190.8L1513.98 189.2H1526.18L1527.78 190.8V192.4L1493.18 258V259.6L1527.78 326.8V328.4L1526.18 330H1513.98L1512.38 328.4L1486.17 276.2H1482.98L1456.78 328.4L1455.18 330H1442.98Z" fill="#A670FF"/>
<path d="M560.717 211.836C559.217 210.34 557.185 209.5 555.067 209.5H467.349C463.783 209.5 461.999 213.813 464.524 216.332L507.462 259.168C509.029 260.731 509.029 263.269 507.462 264.832L390.848 381.168C388.324 383.687 390.107 388 393.673 388H481.391C483.51 388 485.541 387.16 487.041 385.664L611 262L560.717 211.836Z" fill="#A670FF"/>
<path d="M661.283 312.164C662.783 313.66 664.815 314.5 666.933 314.5H754.651C758.217 314.5 760.001 310.187 757.476 307.668L714.538 264.832C712.971 263.269 712.971 260.731 714.538 259.168L831.152 142.832C833.676 140.313 831.893 136 828.327 136H740.609C738.49 136 736.459 136.84 734.959 138.336L611 262L661.283 312.164Z" fill="#A670FF"/>
<path d="M641.5 491.4C639.067 491.4 637.85 490.2 637.85 487.8V481.65C635.317 481.283 633.467 480.4 632.3 479C631.167 477.567 630.6 475.55 630.6 472.95V453.85C630.6 451.25 631.333 449.133 632.8 447.5C634.267 445.833 636.6 445 639.8 445C643 445 645.333 445.833 646.8 447.5C648.267 449.133 649 451.25 649 453.85V472.95C649 475.55 648.417 477.567 647.25 479C646.083 480.433 644.183 481.333 641.55 481.7V486.2C641.55 487 641.95 487.4 642.75 487.4H646.2L646.6 487.8V491L646.2 491.4H641.5ZM639.8 477.8C641.8 477.8 643.217 477.283 644.05 476.25C644.917 475.183 645.35 473.55 645.35 471.35V455.45C645.35 453.25 644.917 451.633 644.05 450.6C643.217 449.533 641.8 449 639.8 449C637.8 449 636.367 449.533 635.5 450.6C634.667 451.633 634.25 453.25 634.25 455.45V471.35C634.25 473.55 634.667 475.183 635.5 476.25C636.367 477.283 637.8 477.8 639.8 477.8ZM673.786 455.4L674.186 455.8V480.6L673.786 481H671.386L670.986 480.6L670.586 477.8H670.186C669.453 479.2 668.486 480.217 667.286 480.85C666.119 481.483 664.886 481.8 663.586 481.8C661.253 481.8 659.503 481.133 658.336 479.8C657.169 478.433 656.586 476.317 656.586 473.45V455.8L656.986 455.4H659.786L660.186 455.8V472.65C660.186 474.55 660.653 475.883 661.586 476.65C662.519 477.417 663.686 477.8 665.086 477.8C666.019 477.8 666.903 477.633 667.736 477.3C668.569 476.967 669.253 476.433 669.786 475.7C670.319 474.933 670.586 473.917 670.586 472.65V455.8L670.986 455.4H673.786ZM688.272 481.8C687.105 481.8 685.989 481.533 684.922 481C683.855 480.433 682.989 479.583 682.322 478.45C681.689 477.317 681.372 475.9 681.372 474.2C681.372 471 682.089 468.733 683.522 467.4C684.955 466.033 686.989 465.35 689.622 465.35H693.972L694.372 464.95V462C694.372 460.767 694.072 459.9 693.472 459.4C692.872 458.867 691.889 458.6 690.522 458.6C688.789 458.6 687.655 458.867 687.122 459.4C686.589 459.9 686.322 460.5 686.322 461.2V462L685.922 462.4H683.122L682.722 462V461.2C682.722 458.933 683.455 457.267 684.922 456.2C686.422 455.133 688.305 454.6 690.572 454.6C692.572 454.6 694.105 454.9 695.172 455.5C696.239 456.1 696.972 457 697.372 458.2C697.772 459.367 697.972 460.8 697.972 462.5V474.55C697.972 476.183 698.455 477 699.422 477H700.172L700.572 477.4V480.6L700.172 481H698.622C697.789 481 697.039 480.833 696.372 480.5C695.705 480.167 695.172 479.633 694.772 478.9H694.372C693.705 479.767 692.805 480.467 691.672 481C690.539 481.533 689.405 481.8 688.272 481.8ZM688.672 477.8C690.939 477.8 692.455 477.567 693.222 477.1C693.989 476.633 694.372 475.667 694.372 474.2V468.95L693.972 468.55H690.322C688.822 468.55 687.689 468.767 686.922 469.2C686.155 469.633 685.639 470.267 685.372 471.1C685.105 471.933 684.972 472.967 684.972 474.2C684.972 475.667 685.355 476.633 686.122 477.1C686.922 477.567 687.772 477.8 688.672 477.8ZM707.358 481L706.958 480.6V477.4L707.358 477H713.858L714.258 476.6V448.6L713.858 448.2H707.458L707.058 447.8V444.6L707.458 444.2H717.458L717.858 444.6V476.6L718.258 477H725.758L726.158 477.4V480.6L725.758 481H707.358ZM742.144 451.4C741.244 451.4 740.477 451.1 739.844 450.5C739.244 449.867 738.944 449.083 738.944 448.15C738.944 447.25 739.244 446.5 739.844 445.9C740.477 445.3 741.244 445 742.144 445C743.044 445 743.794 445.3 744.394 445.9C745.027 446.5 745.344 447.25 745.344 448.15C745.344 449.083 745.027 449.867 744.394 450.5C743.794 451.1 743.044 451.4 742.144 451.4ZM732.944 481L732.544 480.6V477.4L732.944 477H740.344L740.744 476.6V459.8L740.344 459.4H734.444L734.044 459V455.8L734.444 455.4H743.944L744.344 455.8V476.6L744.744 477H751.344L751.744 477.4V480.6L751.344 481H732.944ZM770.88 481C769.046 481 767.613 480.483 766.58 479.45C765.546 478.417 765.03 476.45 765.03 473.55V459.8L764.63 459.4H756.93L756.53 459V455.8L756.93 455.4H764.63L765.03 455V447.8L765.43 447.4H768.23L768.63 447.8V455L769.03 455.4H776.93L777.33 455.8V459L776.93 459.4H769.03L768.63 459.8V471.95C768.63 473.85 768.846 475.167 769.28 475.9C769.713 476.633 770.513 477 771.68 477H776.93L777.33 477.4L777.28 480.6L776.88 481H770.88ZM790.916 481L790.516 480.6L783.716 456.2V455.8L784.116 455.4H786.916L787.316 455.8L792.916 477H793.716L799.316 455.8L799.716 455.4H802.516L802.916 455.8V456.2L794.216 487.2C793.982 488 793.682 488.717 793.316 489.35C792.982 489.983 792.466 490.483 791.766 490.85C791.066 491.217 790.082 491.4 788.816 491.4H784.116L783.716 491V487.8L784.116 487.4H788.166C789.132 487.4 789.899 487.183 790.466 486.75C791.032 486.317 791.482 485.517 791.816 484.35L792.616 481.4V481H790.916ZM837.038 481L836.638 480.6L833.688 456.2V455.8L834.088 455.4H836.538L836.938 455.8L839.088 476.2H839.788L842.488 462.2L842.888 461.8H846.088L846.488 462.2L849.188 476.2H849.888L852.038 455.8L852.438 455.4H854.888L855.288 455.8V456.2L852.338 480.6L851.938 481H847.938L847.538 480.6L844.788 465.8H844.188L841.438 480.6L841.038 481H837.038ZM870.073 451.4C869.173 451.4 868.407 451.1 867.773 450.5C867.173 449.867 866.873 449.083 866.873 448.15C866.873 447.25 867.173 446.5 867.773 445.9C868.407 445.3 869.173 445 870.073 445C870.973 445 871.723 445.3 872.323 445.9C872.957 446.5 873.273 447.25 873.273 448.15C873.273 449.083 872.957 449.867 872.323 450.5C871.723 451.1 870.973 451.4 870.073 451.4ZM860.873 481L860.473 480.6V477.4L860.873 477H868.273L868.673 476.6V459.8L868.273 459.4H862.373L861.973 459V455.8L862.373 455.4H871.873L872.273 455.8V476.6L872.673 477H879.273L879.673 477.4V480.6L879.273 481H860.873ZM898.809 481C896.976 481 895.543 480.483 894.509 479.45C893.476 478.417 892.959 476.45 892.959 473.55V459.8L892.559 459.4H884.859L884.459 459V455.8L884.859 455.4H892.559L892.959 455V447.8L893.359 447.4H896.159L896.559 447.8V455L896.959 455.4H904.859L905.259 455.8V459L904.859 459.4H896.959L896.559 459.8V471.95C896.559 473.85 896.776 475.167 897.209 475.9C897.643 476.633 898.443 477 899.609 477H904.859L905.259 477.4L905.209 480.6L904.809 481H898.809ZM912.845 481L912.445 480.6V444.6L912.845 444.2H915.645L916.045 444.6V458.2H916.445C917.312 457.033 918.245 456.15 919.245 455.55C920.279 454.917 921.545 454.6 923.045 454.6C925.179 454.6 926.879 455.317 928.145 456.75C929.412 458.183 930.045 460.383 930.045 463.35V480.6L929.645 481H926.845L926.445 480.6V464.95C926.445 462.583 925.929 460.933 924.895 460C923.862 459.067 922.645 458.6 921.245 458.6C919.845 458.6 918.629 459.067 917.595 460C916.562 460.933 916.045 462.583 916.045 464.95V480.6L915.645 481H912.845ZM946.831 481.8C943.631 481.8 941.365 480.933 940.031 479.2C938.698 477.467 938.031 475 938.031 471.8V464.6C938.031 461.4 938.698 458.933 940.031 457.2C941.365 455.467 943.631 454.6 946.831 454.6C950.031 454.6 952.298 455.467 953.631 457.2C954.965 458.933 955.631 461.4 955.631 464.6V471.8C955.631 475 954.965 477.467 953.631 479.2C952.298 480.933 950.031 481.8 946.831 481.8ZM946.831 477.8C948.831 477.8 950.198 477.233 950.931 476.1C951.665 474.967 952.031 473.4 952.031 471.4V465C952.031 463 951.665 461.433 950.931 460.3C950.198 459.167 948.831 458.6 946.831 458.6C944.831 458.6 943.465 459.167 942.731 460.3C941.998 461.433 941.631 463 941.631 465V471.4C941.631 473.4 941.998 474.967 942.731 476.1C943.465 477.233 944.831 477.8 946.831 477.8ZM980.817 455.4L981.217 455.8V480.6L980.817 481H978.417L978.017 480.6L977.617 477.8H977.217C976.484 479.2 975.517 480.217 974.317 480.85C973.151 481.483 971.917 481.8 970.617 481.8C968.284 481.8 966.534 481.133 965.367 479.8C964.201 478.433 963.617 476.317 963.617 473.45V455.8L964.017 455.4H966.817L967.217 455.8V472.65C967.217 474.55 967.684 475.883 968.617 476.65C969.551 477.417 970.717 477.8 972.117 477.8C973.051 477.8 973.934 477.633 974.767 477.3C975.601 476.967 976.284 476.433 976.817 475.7C977.351 474.933 977.617 473.917 977.617 472.65V455.8L978.017 455.4H980.817ZM1001.15 481C999.32 481 997.886 480.483 996.853 479.45C995.82 478.417 995.303 476.45 995.303 473.55V459.8L994.903 459.4H987.203L986.803 459V455.8L987.203 455.4H994.903L995.303 455V447.8L995.703 447.4H998.503L998.903 447.8V455L999.303 455.4H1007.2L1007.6 455.8V459L1007.2 459.4H999.303L998.903 459.8V471.95C998.903 473.85 999.12 475.167 999.553 475.9C999.986 476.633 1000.79 477 1001.95 477H1007.2L1007.6 477.4L1007.55 480.6L1007.15 481H1001.15ZM1049.18 481.8C1046.58 481.8 1044.46 481.083 1042.83 479.65C1041.19 478.217 1040.38 476 1040.38 473V463.4C1040.38 460.4 1041.19 458.183 1042.83 456.75C1044.46 455.317 1046.58 454.6 1049.18 454.6C1051.78 454.6 1053.89 455.2 1055.53 456.4C1057.16 457.6 1057.98 459.4 1057.98 461.8V464.25L1057.63 464.65H1054.78L1054.38 464.25V462.6C1054.38 461.4 1053.91 460.433 1052.98 459.7C1052.04 458.967 1050.78 458.6 1049.18 458.6C1047.58 458.6 1046.31 459.067 1045.38 460C1044.44 460.933 1043.98 462.6 1043.98 465V471.4C1043.98 473.8 1044.44 475.467 1045.38 476.4C1046.31 477.333 1047.58 477.8 1049.18 477.8C1050.78 477.8 1052.04 477.433 1052.98 476.7C1053.91 475.967 1054.38 475 1054.38 473.8V472.45L1054.78 472.05H1057.58L1057.98 472.45V474.6C1057.98 477 1057.16 478.8 1055.53 480C1053.89 481.2 1051.78 481.8 1049.18 481.8ZM1074.76 481.8C1071.56 481.8 1069.29 480.933 1067.96 479.2C1066.63 477.467 1065.96 475 1065.96 471.8V464.6C1065.96 461.4 1066.63 458.933 1067.96 457.2C1069.29 455.467 1071.56 454.6 1074.76 454.6C1077.96 454.6 1080.23 455.467 1081.56 457.2C1082.89 458.933 1083.56 461.4 1083.56 464.6V471.8C1083.56 475 1082.89 477.467 1081.56 479.2C1080.23 480.933 1077.96 481.8 1074.76 481.8ZM1074.76 477.8C1076.76 477.8 1078.13 477.233 1078.86 476.1C1079.59 474.967 1079.96 473.4 1079.96 471.4V465C1079.96 463 1079.59 461.433 1078.86 460.3C1078.13 459.167 1076.76 458.6 1074.76 458.6C1072.76 458.6 1071.39 459.167 1070.66 460.3C1069.93 461.433 1069.56 463 1069.56 465V471.4C1069.56 473.4 1069.93 474.967 1070.66 476.1C1071.39 477.233 1072.76 477.8 1074.76 477.8ZM1090.85 481L1090.45 480.6V455.8L1090.85 455.4H1093.35L1093.75 455.8L1094.15 458.2H1094.55C1094.75 457.133 1095.13 456.267 1095.7 455.6C1096.26 454.933 1097.06 454.6 1098.1 454.6C1099.16 454.6 1099.96 454.95 1100.5 455.65C1101.03 456.35 1101.43 457.2 1101.7 458.2H1102.1C1102.36 457.2 1102.81 456.35 1103.45 455.65C1104.08 454.95 1104.91 454.6 1105.95 454.6C1107.45 454.6 1108.53 455.05 1109.2 455.95C1109.9 456.85 1110.25 458.05 1110.25 459.55V480.6L1109.85 481H1107.05L1106.65 480.6V461.55C1106.65 460.65 1106.46 459.933 1106.1 459.4C1105.76 458.867 1105.16 458.6 1104.3 458.6C1103.46 458.6 1102.86 458.867 1102.5 459.4C1102.13 459.933 1101.95 460.65 1101.95 461.55V480.6L1101.55 481H1099.15L1098.75 480.6V461.55C1098.75 460.65 1098.56 459.933 1098.2 459.4C1097.86 458.867 1097.26 458.6 1096.4 458.6C1095.56 458.6 1094.96 458.867 1094.6 459.4C1094.23 459.933 1094.05 460.65 1094.05 461.55V480.6L1093.65 481H1090.85ZM1120.33 491.4H1117.53L1117.13 491V455.8L1117.53 455.4H1119.53L1119.93 455.8L1120.33 457.4H1120.73C1121.2 456.733 1121.92 456.1 1122.88 455.5C1123.85 454.9 1125 454.6 1126.33 454.6C1131.93 454.6 1134.73 457.8 1134.73 464.2V472.2C1134.73 478.6 1131.93 481.8 1126.33 481.8C1125 481.8 1123.87 481.45 1122.93 480.75C1122 480.05 1121.4 479.417 1121.13 478.85H1120.73V491L1120.33 491.4ZM1125.93 477.8C1127.93 477.8 1129.3 477.233 1130.03 476.1C1130.77 474.933 1131.13 473.367 1131.13 471.4V465C1131.13 462.6 1130.67 460.933 1129.73 460C1128.8 459.067 1127.53 458.6 1125.93 458.6C1124.33 458.6 1123.07 459.067 1122.13 460C1121.2 460.933 1120.73 462.6 1120.73 465V471.4C1120.73 473.367 1121.15 474.933 1121.98 476.1C1122.82 477.233 1124.13 477.8 1125.93 477.8ZM1142.32 481L1141.92 480.6V477.4L1142.32 477H1146.42L1146.82 476.6V459.8L1146.42 459.4H1142.42L1142.02 459V455.8L1142.42 455.4H1149.62L1150.02 455.8V456.2L1149.62 457.8L1150.02 458.2H1150.42C1151.09 456.8 1151.89 455.85 1152.82 455.35C1153.79 454.85 1154.72 454.6 1155.62 454.6C1158.42 454.6 1160.32 455.45 1161.32 457.15C1162.32 458.85 1162.82 461.2 1162.82 464.2V465.4L1162.42 465.8H1159.62L1159.22 465.4V464.6C1159.22 463.533 1159.1 462.55 1158.87 461.65C1158.64 460.717 1158.2 459.983 1157.57 459.45C1156.94 458.883 1156.02 458.6 1154.82 458.6C1153.62 458.6 1152.7 458.883 1152.07 459.45C1151.44 459.983 1151 460.717 1150.77 461.65C1150.54 462.55 1150.42 463.533 1150.42 464.6V476.6L1150.82 477H1156.42L1156.82 477.4V480.6L1156.42 481H1142.32ZM1177.1 481.8C1173.9 481.8 1171.64 480.933 1170.3 479.2C1168.97 477.467 1168.3 475 1168.3 471.8V464.6C1168.3 461.4 1168.97 458.933 1170.3 457.2C1171.64 455.467 1173.9 454.6 1177.1 454.6C1180.3 454.6 1182.57 455.467 1183.9 457.2C1185.24 458.933 1185.9 461.4 1185.9 464.6V471.8C1185.9 475 1185.24 477.467 1183.9 479.2C1182.57 480.933 1180.3 481.8 1177.1 481.8ZM1177.1 477.8C1179.1 477.8 1180.47 477.233 1181.2 476.1C1181.94 474.967 1182.3 473.4 1182.3 471.4V465C1182.3 463 1181.94 461.433 1181.2 460.3C1180.47 459.167 1179.1 458.6 1177.1 458.6C1175.1 458.6 1173.74 459.167 1173 460.3C1172.27 461.433 1171.9 463 1171.9 465V471.4C1171.9 473.4 1172.27 474.967 1173 476.1C1173.74 477.233 1175.1 477.8 1177.1 477.8ZM1193.19 481L1192.79 480.6V455.8L1193.19 455.4H1195.69L1196.09 455.8L1196.49 458.2H1196.89C1197.09 457.133 1197.47 456.267 1198.04 455.6C1198.61 454.933 1199.41 454.6 1200.44 454.6C1201.51 454.6 1202.31 454.95 1202.84 455.65C1203.37 456.35 1203.77 457.2 1204.04 458.2H1204.44C1204.71 457.2 1205.16 456.35 1205.79 455.65C1206.42 454.95 1207.26 454.6 1208.29 454.6C1209.79 454.6 1210.87 455.05 1211.54 455.95C1212.24 456.85 1212.59 458.05 1212.59 459.55V480.6L1212.19 481H1209.39L1208.99 480.6V461.55C1208.99 460.65 1208.81 459.933 1208.44 459.4C1208.11 458.867 1207.51 458.6 1206.64 458.6C1205.81 458.6 1205.21 458.867 1204.84 459.4C1204.47 459.933 1204.29 460.65 1204.29 461.55V480.6L1203.89 481H1201.49L1201.09 480.6V461.55C1201.09 460.65 1200.91 459.933 1200.54 459.4C1200.21 458.867 1199.61 458.6 1198.74 458.6C1197.91 458.6 1197.31 458.867 1196.94 459.4C1196.57 459.933 1196.39 460.65 1196.39 461.55V480.6L1195.99 481H1193.19ZM1228.28 451.4C1227.38 451.4 1226.61 451.1 1225.98 450.5C1225.38 449.867 1225.08 449.083 1225.08 448.15C1225.08 447.25 1225.38 446.5 1225.98 445.9C1226.61 445.3 1227.38 445 1228.28 445C1229.18 445 1229.93 445.3 1230.53 445.9C1231.16 446.5 1231.48 447.25 1231.48 448.15C1231.48 449.083 1231.16 449.867 1230.53 450.5C1229.93 451.1 1229.18 451.4 1228.28 451.4ZM1219.08 481L1218.68 480.6V477.4L1219.08 477H1226.48L1226.88 476.6V459.8L1226.48 459.4H1220.58L1220.18 459V455.8L1220.58 455.4H1230.08L1230.48 455.8V476.6L1230.88 477H1237.48L1237.88 477.4V480.6L1237.48 481H1219.08ZM1254.26 481.8C1251.26 481.8 1248.91 481.217 1247.21 480.05C1245.51 478.883 1244.66 477.183 1244.66 474.95V472.9L1245.06 472.5H1247.86L1248.26 472.9V474.15C1248.26 475.35 1248.65 476.267 1249.41 476.9C1250.18 477.5 1251.66 477.8 1253.86 477.8C1255.33 477.8 1256.46 477.617 1257.26 477.25C1258.1 476.85 1258.66 476.367 1258.96 475.8C1259.3 475.233 1259.46 474.683 1259.46 474.15C1259.46 473.283 1258.98 472.533 1258.01 471.9C1257.05 471.233 1255.66 470.6 1253.86 470C1251.86 469.3 1250.23 468.583 1248.96 467.85C1247.7 467.117 1246.76 466.25 1246.16 465.25C1245.56 464.217 1245.26 462.95 1245.26 461.45C1245.26 459.25 1245.98 457.567 1247.41 456.4C1248.85 455.2 1250.86 454.6 1253.46 454.6C1254.8 454.6 1256.08 454.867 1257.31 455.4C1258.58 455.933 1259.61 456.717 1260.41 457.75C1261.25 458.75 1261.66 459.983 1261.66 461.45V463.1L1261.26 463.5H1258.46L1258.06 463.1V462.25C1258.06 461.05 1257.66 460.15 1256.86 459.55C1256.06 458.917 1255.06 458.6 1253.86 458.6C1251.86 458.6 1250.53 458.967 1249.86 459.7C1249.2 460.4 1248.86 461.25 1248.86 462.25C1248.86 463.05 1249.3 463.767 1250.16 464.4C1251.06 465.033 1252.33 465.633 1253.96 466.2C1255.96 466.867 1257.63 467.55 1258.96 468.25C1260.33 468.917 1261.35 469.767 1262.01 470.8C1262.71 471.833 1263.06 473.217 1263.06 474.95C1263.06 476.55 1262.66 477.867 1261.86 478.9C1261.06 479.9 1260 480.633 1258.66 481.1C1257.33 481.567 1255.86 481.8 1254.26 481.8ZM1279.45 481.8C1276.25 481.8 1273.98 480.933 1272.65 479.2C1271.32 477.467 1270.65 475 1270.65 471.8V464.6C1270.65 461.4 1271.32 458.933 1272.65 457.2C1273.98 455.467 1276.25 454.6 1279.45 454.6C1282.65 454.6 1284.92 455.467 1286.25 457.2C1287.58 458.933 1288.25 461.4 1288.25 464.6V469L1287.85 469.4H1274.65L1274.25 469.8V471.4C1274.25 473.4 1274.62 474.967 1275.35 476.1C1276.08 477.233 1277.45 477.8 1279.45 477.8C1281.05 477.8 1282.32 477.45 1283.25 476.75C1284.18 476.05 1284.65 475 1284.65 473.6V473.2L1285.05 472.8H1287.85L1288.25 473.2V474C1288.25 475.4 1287.95 476.7 1287.35 477.9C1286.78 479.067 1285.85 480.017 1284.55 480.75C1283.28 481.45 1281.58 481.8 1279.45 481.8ZM1274.65 465.8H1284.25L1284.65 465.4V465C1284.65 463 1284.28 461.433 1283.55 460.3C1282.82 459.167 1281.45 458.6 1279.45 458.6C1277.45 458.6 1276.08 459.167 1275.35 460.3C1274.62 461.433 1274.25 463 1274.25 465V465.4L1274.65 465.8Z" fill="#555555"/>
</svg>
